<?xml version="1.0" encoding="UTF-8" standalone="no"?>
<!-- Created with Inkscape (http://www.inkscape.org/) -->

<svg
   width="131.03522mm"
   height="133.24164mm"
   viewBox="0 0 131.03522 133.24164"
   version="1.1"
   id="svg1"
   xml:space="preserve"
   inkscape:version="1.3 (0e150ed6c4, 2023-07-21)"
   sodipodi:docname="nyulogo.svg"
   xmlns:inkscape="http://www.inkscape.org/namespaces/inkscape"
   xmlns:sodipodi="http://sodipodi.sourceforge.net/DTD/sodipodi-0.dtd"
   xmlns:xlink="http://www.w3.org/1999/xlink"
   xmlns="http://www.w3.org/2000/svg"
   xmlns:svg="http://www.w3.org/2000/svg"><sodipodi:namedview
     id="namedview1"
     pagecolor="#505050"
     bordercolor="#ffffff"
     borderopacity="1"
     inkscape:showpageshadow="0"
     inkscape:pageopacity="0"
     inkscape:pagecheckerboard="1"
     inkscape:deskcolor="#505050"
     inkscape:document-units="mm"
     inkscape:export-bgcolor="#ffffff00"
     inkscape:zoom="1.4396184"
     inkscape:cx="281.67187"
     inkscape:cy="307.72043"
     inkscape:window-width="1920"
     inkscape:window-height="1014"
     inkscape:window-x="0"
     inkscape:window-y="0"
     inkscape:window-maximized="1"
     inkscape:current-layer="g3" /><defs
     id="defs1"><pattern
       inkscape:collect="always"
       xlink:href="#pattern34-30"
       preserveAspectRatio="xMidYMid"
       id="pattern614"
       patternTransform="matrix(2,0,0,2,1100,535)" /><pattern
       patternUnits="userSpaceOnUse"
       width="10"
       height="10"
       patternTransform="translate(1100,535) scale(2)"
       preserveAspectRatio="xMidYMid"
       style="fill:#000000"
       id="pattern34-30"
       inkscape:label="Circle fill 4"
       inkscape:collect="always"
       inkscape:isstock="true"><path
         id="path34-4"
         style="paint-order:stroke markers fill;stop-color:#000000"
         d="m 10,9.99997 -5,-2e-5 C 8,9.99997 10,7.99999 10,5 Z m -5,-5 h 5 c -3,0 -5,2 -5,5 z m 0,0 -5,2e-5 c 3,-2e-5 5,1.99996 5,4.99995 z m -5,5 h 5 c -3,0 -5,-2 -5,-5 z M 10,0 5,2e-5 C 8,0 10,1.99998 10,4.99997 Z M 5,5 h 5 C 7,5 5,3 5,0 Z m 0,0 -5,-2e-5 C 3,5 5,3.00002 5,3e-5 Z M 0,0 H 5 C 2,0 0,2 0,5 Z" /></pattern><clipPath
       clipPathUnits="userSpaceOnUse"
       id="clipPath5"><path
         id="path5"
         style="stroke-width:0.1;stroke-linecap:square;paint-order:markers fill stroke;stop-color:#000000"
         d="m 438.25066,553.76374 859.87054,0 v 201.39554 l -859.87054,0 z"
         sodipodi:nodetypes="ccccc" /></clipPath><pattern
       inkscape:collect="always"
       xlink:href="#pattern387"
       preserveAspectRatio="xMidYMid"
       id="pattern388"
       patternTransform="translate(190,350)"
       x="0"
       y="0" /><pattern
       patternUnits="userSpaceOnUse"
       width="29"
       height="20"
       patternTransform="translate(190,350)"
       preserveAspectRatio="xMidYMid"
       style="fill:#14c700"
       id="pattern387"
       inkscape:label="pattern387"
       inkscape:collect="always"
       inkscape:isstock="true"><path
         style="fill:none;stroke:#000000;stroke-width:10;stroke-linecap:butt;stroke-dasharray:none;paint-order:stroke markers fill;stop-color:#000000"
         d="M 0,5 C 19,5 10,15 29,15"
         id="path386"
         sodipodi:nodetypes="cc" /></pattern><clipPath
       clipPathUnits="userSpaceOnUse"
       id="clipPath24"><rect
         style="fill:none;stroke:#000000;stroke-width:0.999999;stroke-linecap:butt;stroke-linejoin:bevel;paint-order:stroke markers fill;stop-color:#000000"
         id="rect24"
         width="44.999748"
         height="77.937294"
         x="251.53429"
         y="222.73541" /></clipPath><rect
       x="169.48936"
       y="222.28113"
       width="519.58215"
       height="325.08615"
       id="rect5" /><rect
       x="131.97942"
       y="284.7977"
       width="493.18625"
       height="165.32159"
       id="rect3" /><linearGradient
       id="a"
       x1="64.699997"
       x2="77.400002"
       y1="119.2"
       y2="77.400002"
       gradientUnits="userSpaceOnUse"><stop
         stop-color="#D83333"
         id="stop3-7"
         offset="0"
         style="stop-color:#df209f;stop-opacity:1;" /><stop
         offset="1"
         stop-color="#F041FF"
         id="stop4"
         style="stop-color:#df209f;stop-opacity:1;" /></linearGradient><filter
       style="color-interpolation-filters:sRGB;"
       inkscape:label="Duochrome"
       id="filter596"
       x="0"
       y="0"
       width="1"
       height="1"><feColorMatrix
         type="luminanceToAlpha"
         result="colormatrix1"
         id="feColorMatrix592" /><feFlood
         flood-opacity="1"
         flood-color="rgb(255,5,180)"
         result="flood1"
         id="feFlood592" /><feComposite
         in2="colormatrix1"
         operator="out"
         result="composite1"
         id="feComposite592" /><feFlood
         flood-opacity="1"
         flood-color="rgb(143,136,112)"
         result="flood2"
         id="feFlood593" /><feComposite
         in2="colormatrix1"
         result="composite2"
         operator="in"
         id="feComposite593" /><feComposite
         in="composite2"
         in2="composite1"
         k2="1"
         k3="1"
         operator="arithmetic"
         result="composite3"
         id="feComposite594" /><feColorMatrix
         in="composite3"
         type="matrix"
         values="2 -1 0 0 0 0 2 -1 0 0 -1 0 2 0 0 0 0 0 1 0 "
         result="colormatrix2"
         id="feColorMatrix594" /><feComposite
         in="colormatrix2"
         in2="composite3"
         operator="arithmetic"
         k2="0"
         result="composite4"
         id="feComposite595" /><feBlend
         in="composite4"
         in2="composite3"
         mode="normal"
         result="blend"
         id="feBlend595" /><feComposite
         in2="SourceGraphic"
         operator="in"
         id="feComposite596"
         result="fbSourceGraphic" /><feColorMatrix
         result="fbSourceGraphicAlpha"
         in="fbSourceGraphic"
         values="0 0 0 -1 0 0 0 0 -1 0 0 0 0 -1 0 0 0 0 1 0"
         id="feColorMatrix614" /><feColorMatrix
         id="feColorMatrix615"
         type="luminanceToAlpha"
         result="colormatrix1"
         in="fbSourceGraphic" /><feFlood
         id="feFlood615"
         flood-opacity="1"
         flood-color="rgb(223,32,159)"
         result="flood1" /><feComposite
         id="feComposite615"
         in2="colormatrix1"
         operator="out"
         result="composite1" /><feFlood
         id="feFlood616"
         flood-opacity="1"
         flood-color="rgb(143,136,112)"
         result="flood2" /><feComposite
         id="feComposite616"
         in2="colormatrix1"
         result="composite2"
         operator="in" /><feComposite
         id="feComposite617"
         in="composite2"
         in2="composite1"
         k2="1"
         k3="1"
         operator="arithmetic"
         result="composite3" /><feColorMatrix
         id="feColorMatrix617"
         in="composite3"
         type="matrix"
         values="2 -1 0 0 0 0 2 -1 0 0 -1 0 2 0 0 0 0 0 1 0 "
         result="colormatrix2" /><feComposite
         id="feComposite618"
         in="colormatrix2"
         in2="composite3"
         operator="arithmetic"
         k2="0"
         result="composite4" /><feBlend
         id="feBlend618"
         in="composite4"
         in2="composite3"
         mode="normal"
         result="blend" /><feComposite
         id="feComposite619"
         in2="fbSourceGraphic"
         operator="in"
         result="fbSourceGraphic" /><feColorMatrix
         result="fbSourceGraphicAlpha"
         in="fbSourceGraphic"
         values="0 0 0 -1 0 0 0 0 -1 0 0 0 0 -1 0 0 0 0 1 0"
         id="feColorMatrix619" /><feColorMatrix
         id="feColorMatrix620"
         type="luminanceToAlpha"
         result="colormatrix1"
         in="fbSourceGraphic" /><feFlood
         id="feFlood620"
         flood-opacity="1"
         flood-color="rgb(255,0,170)"
         result="flood1" /><feComposite
         id="feComposite620"
         in2="colormatrix1"
         operator="out"
         result="composite1" /><feFlood
         id="feFlood621"
         flood-opacity="1"
         flood-color="rgb(143,136,112)"
         result="flood2" /><feComposite
         id="feComposite621"
         in2="colormatrix1"
         result="composite2"
         operator="in" /><feComposite
         id="feComposite622"
         in="composite2"
         in2="composite1"
         k2="1"
         k3="1"
         operator="arithmetic"
         result="composite3" /><feColorMatrix
         id="feColorMatrix622"
         in="composite3"
         type="matrix"
         values="2 -1 0 0 0 0 2 -1 0 0 -1 0 2 0 0 0 0 0 1 0 "
         result="colormatrix2" /><feComposite
         id="feComposite623"
         in="colormatrix2"
         in2="composite3"
         operator="arithmetic"
         k2="0"
         result="composite4" /><feBlend
         id="feBlend623"
         in="composite4"
         in2="composite3"
         mode="normal"
         result="blend" /><feComposite
         id="feComposite624"
         in2="fbSourceGraphic"
         operator="in" /></filter></defs><g
     inkscape:label="Layer 1"
     inkscape:groupmode="layer"
     id="layer1"
     transform="translate(-40.414079,-145.71839)"><g
       style="fill:none"
       id="g3"
       transform="matrix(0.6912295,0.6912295,-0.6912295,0.6912295,103.54132,135.55586)"><path
         d="m -70.352666,8.7227785 c -5.5,-5 -7.2,-15.7 -4.9,-23.3999995 4,4.8999995 9.6,6.3999995 15.4,7.2999995 8.9,1.3 17.6,0.8 25.9,-3.1999995 l 2.8,-1.7 a 18,18 0 0 1 -7.2,19.9999995 l -5.5,3.8000005 c -5.6,3.8 -7.2,8.2 -5,14.7 l 0.2,0.7 a 14,14 0 0 1 -6.6,-5.6 15.8,15.8 0 0 1 -2.6,-8.6 c 0,-1.5 0,-3.0000005 -0.2,-4.5000005 -0.5,-3.7 -2.2,-5.3 -5.5,-5.4 -3.3,-0.1 -5.9,2 -6.6,5.2 z"
         id="path1-3"
         style="fill:#000000" /><path
         d="m -102.05267,-15.977221 c 0,0 16.500004,-8 33.000004,-8 l 12.4,-38.3 c 0.5,-2 1.8,-3.2 3.3,-3.2 1.6,0 3,1.3 3.4,3.2 l 12.4,38.3 c 19.6,0 33.0000002,8 33.0000002,8 l -28.0000002,-76 c -0.8,-2.3 -2.2,-3.7 -4,-3.7 h -33.5 c -1.8,0 -3.1,1.4 -4,3.7 z"
         id="path2-6"
         style="fill:#000000" /><text
         xml:space="preserve"
         transform="matrix(0.19138603,-0.19138603,0.19138603,0.19138603,-172.95065,-23.157678)"
         id="text3"
         style="font-size:12px;font-family:Z003;-inkscape-font-specification:'Z003, Normal';white-space:pre;shape-inside:url(#rect3);fill:#eeff21;fill-opacity:1" /><text
         xml:space="preserve"
         style="font-size:3.24793px;font-family:Z003;-inkscape-font-specification:'Z003, Normal';fill:#eeff21;fill-opacity:1;stroke-width:0.270661"
         x="25.310415"
         y="-32.256634"
         id="text4"
         transform="rotate(-45)"><tspan
           sodipodi:role="line"
           id="tspan4"
           style="stroke-width:0.270661"
           x="25.310415"
           y="-32.256634" /></text><g
         id="g6"
         transform="translate(-9.5718378,22.334288)"
         inkscape:export-filename="g6.png"
         inkscape:export-xdpi="96"
         inkscape:export-ydpi="96"><path
           fill="url(#a)"
           d="m 47.7,107.1 c -5.5,-5 -7.2,-15.7 -4.9,-23.4 4,4.9 9.6,6.4 15.4,7.3 8.9,1.3 17.6,0.8 25.9,-3.2 l 2.8,-1.7 a 18,18 0 0 1 -7.2,20 l -5.5,3.8 c -5.6,3.8 -7.2,8.2 -5,14.7 l 0.2,0.7 a 14,14 0 0 1 -6.6,-5.6 15.8,15.8 0 0 1 -2.6,-8.6 c 0,-1.5 0,-3 -0.2,-4.5 -0.5,-3.7 -2.2,-5.3 -5.5,-5.4 -3.3,-0.1 -5.9,2 -6.6,5.2 z"
           id="path3"
           style="fill:url(#a)" /><text
           xml:space="preserve"
           transform="matrix(0.79383836,0,0,0.79383836,-112.01884,-232.84368)"
           id="text5"
           style="font-size:12px;font-family:Z003;-inkscape-font-specification:'Z003, Normal';white-space:pre;shape-inside:url(#rect5);opacity:1;mix-blend-mode:normal;fill:url(#pattern614);fill-opacity:1;fill-rule:nonzero;stroke-width:0.99998245;stroke-dasharray:none;stroke:none;filter:url(#filter596)"><tspan
             x="169.49023"
             y="396.97729"
             id="tspan2"><tspan
               style="font-size:192px;font-family:Sans;-inkscape-font-specification:'Sans, Normal'"
               id="tspan1">8</tspan></tspan></text></g></g></g><style
     id="style3">&#10;    @media (prefers-color-scheme:dark){:root{filter:invert(100%)}}&#10;  </style><style
     id="style4">&#10;    g {&#10;      fill: #000;&#10;    }&#10;&#10;    @media (prefers-color-scheme: dark) {&#10;      g {&#10;        fill: #FFF;&#10;      }&#10;    }&#10;  </style></svg>
