<?xml version="1.0" standalone="no"?>
<!DOCTYPE svg PUBLIC "-//W3C//DTD SVG 20010904//EN"
 "http://www.w3.org/TR/2001/REC-SVG-20010904/DTD/svg10.dtd">
<svg version="1.0" xmlns="http://www.w3.org/2000/svg"
 width="512.000000pt" height="512.000000pt" viewBox="0 0 512.000000 512.000000"
 preserveAspectRatio="xMidYMid meet">
<metadata>
Created by potrace 1.14, written by Peter Selinger 2001-2017
</metadata>
<g transform="translate(0.000000,512.000000) scale(0.100000,-0.100000)"
fill="#000000" stroke="none">
<path d="M2604 3948 l-19 -23 23 19 c21 18 27 26 19 26 -2 0 -12 -10 -23 -22z"/>
<path d="M1736 3879 c-59 -47 -56 35 -56 -1321 0 -1215 1 -1244 20 -1275 38
-63 40 -63 452 -63 l373 0 -4 48 c-3 47 -33 93 -46 72 -9 -15 -38 -12 -29 3 6
9 4 9 -7 -1 -20 -19 -34 -14 -17 6 9 9 23 32 33 50 9 19 19 32 21 29 3 -3 -2
-19 -11 -36 -8 -17 -13 -31 -11 -31 11 0 36 59 31 73 -3 7 -1 24 5 38 10 23
10 22 5 -6 -4 -20 -2 -25 4 -15 11 20 9 349 -3 374 -7 14 -6 17 2 12 8 -5 12
1 12 17 0 17 -18 42 -61 81 -33 31 -64 56 -69 56 -5 0 9 -26 30 -57 53 -80 81
-170 87 -278 6 -112 -11 -178 -46 -183 -18 -3 -22 0 -17 15 23 76 27 171 10
227 -10 30 -24 -1 -24 -54 0 -49 -27 -117 -54 -139 -28 -23 -30 -5 -6 51 28
66 23 153 -14 234 -30 65 -26 70 8 12 14 -24 26 -36 26 -27 0 35 -55 121 -108
170 -59 54 -46 54 22 0 45 -36 50 -38 37 -12 -24 43 -242 213 -256 199 -3 -3
13 -17 35 -32 55 -36 50 -41 -7 -9 -101 55 -259 147 -278 160 -19 14 -19 15 4
8 17 -5 21 -4 16 5 -6 9 -2 9 15 0 12 -6 19 -14 16 -17 -3 -3 6 -12 20 -20 32
-16 37 -16 28 -1 -4 7 -3 8 5 4 6 -4 8 -12 5 -18 -5 -8 -1 -9 10 -5 9 4 15 3
12 -2 -7 -11 22 -23 35 -15 5 3 8 0 7 -7 -2 -6 3 -14 11 -17 9 -3 11 0 6 8 -5
9 -4 11 4 6 6 -4 8 -12 5 -18 -5 -7 -1 -9 9 -5 10 4 16 2 14 -5 -1 -6 4 -13
12 -16 9 -3 11 0 6 9 -11 16 69 -29 155 -89 37 -26 56 -36 45 -23 -11 13 -49
44 -85 69 -97 68 -95 70 13 13 82 -43 207 -123 298 -190 16 -12 19 -11 19 2 0
17 -65 74 -156 135 -34 23 -155 89 -270 146 -115 58 -206 105 -202 105 4 1
100 -44 215 -99 218 -106 332 -171 372 -214 14 -14 29 -26 35 -26 17 0 -55 58
-139 111 -44 27 -143 81 -221 119 -161 78 -331 175 -294 166 14 -3 -10 11 -52
31 -74 35 -78 38 -78 70 0 18 2 33 4 33 11 0 242 -83 251 -90 6 -4 61 -29 123
-55 62 -26 119 -53 125 -60 7 -6 44 -22 82 -35 39 -13 99 -36 134 -52 35 -16
66 -26 69 -24 12 13 -10 34 -41 39 -50 8 -184 63 -208 86 -11 10 -48 34 -82
52 -50 26 -57 34 -42 39 18 6 17 9 -10 35 -22 21 -25 26 -10 21 11 -5 40 -11
65 -13 54 -7 47 4 -27 42 -55 27 -70 42 -31 29 20 -6 21 -5 10 8 -18 22 -244
95 -317 103 -87 10 -95 13 -95 42 0 25 1 25 58 20 56 -6 42 3 -29 17 -25 5
-27 9 -27 65 0 59 1 59 33 65 18 4 41 4 51 0 15 -4 14 -1 -6 18 -14 12 -38 32
-54 44 -21 15 -27 27 -24 48 l3 28 19 -21 c17 -18 17 -21 3 -15 -30 11 -18 -3
33 -41 50 -37 442 -239 403 -207 l-22 17 66 55 c89 74 143 160 149 237 l5 58
-39 -82 c-40 -82 -74 -115 -95 -94 -7 7 -6 28 6 71 10 33 17 96 17 140 0 44 4
80 9 80 15 0 24 -84 16 -145 -4 -39 -3 -55 5 -55 6 0 9 8 6 18 -6 17 6 44 18
43 3 -1 10 -1 15 -1 4 0 8 34 7 76 -1 67 1 73 13 55 17 -26 31 -27 31 -2 0 23
22 40 28 23 6 -20 43 -14 49 9 4 14 12 19 24 16 32 -9 22 26 -19 66 -43 42
-52 45 -52 17 0 -24 -22 -26 -40 -5 -17 20 -44 20 -36 -1 23 -61 13 -89 -15
-38 -7 14 -40 50 -72 80 -67 62 -66 71 2 17 l46 -37 -35 38 c-19 21 -55 48
-80 61 -25 13 -39 24 -32 25 7 0 26 -7 42 -15 17 -9 30 -13 30 -11 0 11 -68
40 -129 56 -56 15 -60 18 -36 23 84 16 239 -36 342 -114 29 -21 55 -39 58 -39
14 0 2 24 -32 61 -64 71 -153 112 -278 128 -66 8 -67 9 -20 10 113 2 252 -52
333 -130 l42 -41 0 45 c0 43 -3 47 -46 76 -58 38 -144 71 -204 78 -40 4 -120
-5 -308 -37 -64 -11 -198 -55 -219 -72 -10 -8 -13 -2 -13 25 0 37 15 54 79 89
30 17 49 43 38 54 -3 3 -29 -2 -58 -10 -29 -9 -54 -16 -56 -16 -2 0 -3 21 -3
48 0 42 3 49 31 65 34 19 34 40 1 45 -22 3 -29 26 -14 48 4 6 23 19 42 29 30
15 50 17 149 11 63 -3 119 -10 125 -15 6 -5 48 -19 92 -31 45 -12 138 -49 205
-83 68 -34 130 -61 136 -60 7 0 10 -4 6 -10 -3 -6 -1 -7 5 -3 26 16 8 37 -75
88 -101 63 -167 93 -181 84 -13 -8 -62 14 -62 27 0 18 93 -1 163 -32 37 -17
88 -44 113 -62 25 -17 47 -29 49 -27 1 1 6 40 10 86 l7 82 -380 0 c-370 0
-380 -1 -406 -21z m-39 -1322 c-1 -226 -2 -41 -2 413 0 454 1 639 2 413 2
-227 2 -599 0 -826z m170 907 c-3 -3 -12 -4 -19 -1 -8 3 -5 6 6 6 11 1 17 -2
13 -5z m230 0 c-3 -3 -12 -4 -19 -1 -8 3 -5 6 6 6 11 1 17 -2 13 -5z m126
-148 c20 -32 29 -58 16 -50 -8 4 -9 -4 -5 -27 5 -30 5 -31 -4 -10 -6 13 -8 32
-5 42 4 12 -11 35 -52 76 l-58 58 47 -34 c27 -19 54 -44 61 -55z m7 -326 c-6
-11 -8 -26 -4 -32 4 -6 3 -8 -3 -5 -12 8 -38 -20 -86 -95 -46 -70 -57 -78 -47
-33 4 19 21 46 38 60 16 14 47 47 68 75 40 53 52 63 34 30z m-14 -91 c-8 -51
-33 -89 -57 -89 -11 0 -19 2 -19 4 0 2 16 27 35 56 19 29 35 56 35 61 0 5 3 9
6 9 4 0 4 -18 0 -41z m-401 -271 c96 -23 115 -29 111 -37 -3 -4 23 -18 57 -30
34 -12 71 -29 82 -38 19 -14 17 -15 -25 -10 -66 9 -171 26 -204 33 -55 13 -18
-13 43 -30 33 -9 64 -23 68 -31 5 -7 43 -29 86 -49 92 -42 102 -55 15 -19 -35
14 -81 31 -103 39 -43 14 -90 32 -170 62 -44 18 -50 24 -53 52 -2 18 1 30 6
26 5 -3 9 1 9 9 0 8 -4 15 -9 15 -4 0 -8 7 -8 15 0 16 2 16 95 -7z m-50 -256
c-6 -7 -45 19 -45 29 0 5 11 2 24 -8 13 -10 23 -19 21 -21z m85 -27 c14 -8 21
-14 15 -14 -5 0 -21 6 -35 14 -14 8 -20 14 -15 14 6 0 21 -6 35 -14z m-41 -41
c14 -12 -19 -1 -35 12 -18 14 -18 14 6 3 14 -6 27 -13 29 -15z m347 -272 c-4
-3 -14 2 -24 12 -16 18 -16 18 6 6 13 -6 21 -14 18 -18z m145 -173 c21 -42 25
-64 9 -54 -10 6 -60 98 -60 111 0 15 33 -22 51 -57z m9 -227 c0 -35 -27 -130
-41 -147 -13 -14 -11 9 7 79 11 41 15 84 11 131 l-5 70 14 -50 c7 -27 14 -65
14 -83z m-100 -156 c0 -2 -8 -10 -17 -17 -16 -13 -17 -12 -4 4 13 16 21 21 21
13z m32 -38 c-7 -7 -12 -8 -12 -2 0 6 3 14 7 17 3 4 9 5 12 2 2 -3 -1 -11 -7
-17z m198 -17 c0 -12 -26 -32 -33 -25 -9 10 4 34 19 34 8 0 14 -4 14 -9z
m-334 -24 c-1 -6 -5 -18 -9 -24 -14 -22 38 -15 69 9 l29 22 -22 -25 c-13 -14
-23 -31 -23 -38 0 -21 -267 -1 -281 21 -3 5 -30 8 -60 6 l-54 -3 45 -12 45
-11 -42 -1 c-36 -1 -45 3 -63 30 -12 16 -19 33 -16 36 4 4 28 -1 55 -11 61
-22 164 -22 235 -2 30 9 62 13 72 9 13 -5 15 -3 9 7 -5 8 -4 11 3 7 5 -4 9
-13 8 -20z m-279 7 c-3 -3 -12 -4 -19 -1 -8 3 -5 6 6 6 11 1 17 -2 13 -5z
m514 -17 c-10 -9 -11 -8 -5 6 3 10 9 15 12 12 3 -3 0 -11 -7 -18z m-464 7 c-3
-3 -12 -4 -19 -1 -8 3 -5 6 6 6 11 1 17 -2 13 -5z"/>
<path d="M3220 3738 c0 -232 1 -234 72 -288 102 -76 105 -83 113 -212 3 -62
10 -331 14 -598 8 -458 8 -438 7 345 -1 636 -4 835 -13 851 -15 27 -54 41
-133 50 l-60 7 0 -155z"/>
<path d="M3408 3855 c12 -15 22 -42 23 -59 0 -17 3 -25 6 -18 10 25 -8 82 -29
93 l-21 12 21 -28z"/>
<path d="M2723 3848 c-4 -7 -9 -69 -9 -138 -1 -69 -4 -161 -8 -205 -4 -53 -3
-73 3 -60 9 18 10 18 10 -6 1 -29 9 -31 197 -45 l91 -7 21 42 c25 47 27 82 8
126 -8 20 -10 43 -4 75 20 100 20 108 3 143 -20 44 -45 54 -165 67 -52 6 -105
13 -117 15 -12 3 -25 -1 -30 -7z"/>
<path d="M2555 2565 c0 -704 1 -991 2 -637 2 354 2 930 0 1280 -1 350 -2 61
-2 -643z"/>
<path d="M1795 3790 c-8 -25 1 -40 24 -40 24 0 45 25 37 45 -8 23 -53 19 -61
-5z"/>
<path d="M2052 3763 c-35 -14 21 -37 243 -104 64 -19 133 -53 193 -95 21 -16
22 -15 22 6 0 13 -8 33 -17 44 -17 20 -17 20 0 7 10 -8 17 -9 17 -3 0 16 -122
82 -193 104 -62 19 -209 49 -237 47 -8 0 -21 -3 -28 -6z"/>
<path d="M2368 2913 c-19 -43 -63 -113 -96 -155 l-62 -78 32 -16 c17 -9 85
-49 150 -90 98 -60 118 -70 118 -54 0 14 -5 18 -17 14 -17 -5 -17 -5 0 9 11 9
17 28 17 53 l0 38 -40 -39 c-52 -51 -51 -35 2 28 33 40 36 46 15 32 -33 -22
-34 -15 -2 35 31 49 33 63 3 24 -32 -44 -101 -114 -111 -114 -5 0 9 21 31 48
39 47 97 150 89 158 -3 3 -28 -25 -57 -62 -72 -92 -92 -114 -102 -114 -5 0 11
26 36 58 56 70 99 171 90 210 -4 21 -3 24 5 12 8 -12 11 -5 11 28 0 38 -2 42
-24 42 -13 0 -31 2 -39 5 -10 4 -24 -17 -49 -72z m62 -71 c0 -32 -48 -116 -90
-157 -22 -21 -40 -34 -40 -27 0 7 -11 12 -25 12 -24 0 -23 2 21 65 76 108 134
155 134 107z"/>
<path d="M2583 2025 c-2 -828 -2 -829 18 -852 l21 -22 -23 6 c-14 4 -21 2 -16
-3 5 -5 47 -9 94 -10 53 0 79 3 67 8 -12 5 0 6 31 3 38 -3 45 -2 30 5 -18 9
-17 10 5 5 31 -6 255 16 242 24 -6 3 20 7 58 8 37 1 87 8 111 16 24 8 70 18
102 22 65 8 74 21 20 30 -49 8 -91 25 -109 42 -11 12 -14 68 -14 304 0 159 3
289 8 289 4 0 22 -27 40 -60 19 -33 38 -60 43 -60 16 0 99 51 99 61 0 4 -29 6
-65 2 l-65 -6 0 49 c0 74 38 117 70 79 10 -13 15 -12 36 3 41 30 30 42 -41 42
l-65 0 0 55 c0 42 3 55 15 55 10 0 15 -11 15 -35 0 -44 18 -46 22 -3 4 46 28
49 28 4 0 -20 5 -36 10 -36 6 0 10 18 10 40 0 29 4 40 15 40 13 0 15 11 13 58
l-3 57 -47 3 c-46 3 -48 2 -48 -22 0 -16 -6 -26 -15 -26 -12 0 -15 14 -15 70
0 56 3 70 15 70 9 0 15 -9 15 -25 0 -23 4 -25 45 -25 l45 0 0 46 c0 41 -1 44
-16 30 -22 -23 -60 -20 -84 6 -33 35 -24 135 14 160 19 13 54 9 72 -9 15 -16
16 -15 10 15 -3 18 -9 46 -12 62 -5 28 -8 30 -55 30 -46 0 -49 2 -49 25 0 22
4 25 38 25 l37 1 -59 54 c-33 30 -62 55 -66 55 -4 0 -9 -42 -12 -92 -5 -88 -8
-98 -52 -178 -26 -47 -94 -182 -152 -300 -58 -118 -128 -260 -155 -315 -38
-77 -50 -112 -51 -152 -1 -43 -5 -53 -22 -58 -20 -7 -20 -7 4 -15 l25 -8 -22
-7 c-26 -8 -31 -25 -7 -25 8 0 12 -4 9 -10 -10 -17 -31 -11 -42 12 -8 19 -12
14 -32 -43 -13 -35 -33 -83 -46 -105 -29 -55 -36 -92 -37 -219 0 -58 -4 -105
-8 -105 -4 0 -13 12 -21 27 -12 23 -15 169 -19 843 l-6 815 -1 -830z m197
-421 c0 -2 -9 -4 -21 -4 -11 0 -18 4 -14 10 5 8 35 3 35 -6z"/>
<path d="M1820 2785 c14 -8 30 -14 35 -14 6 0 -1 6 -15 14 -14 8 -29 14 -35
14 -5 0 1 -6 15 -14z"/>
<path d="M1890 2762 c8 -5 26 -13 40 -16 17 -5 20 -4 10 2 -8 5 -26 13 -40 16
-17 5 -20 4 -10 -2z"/>
<path d="M1999 2719 c24 -11 46 -18 48 -15 4 4 -73 36 -85 35 -4 0 13 -9 37
-20z"/>
<path d="M1955 2700 c71 -33 68 -35 -21 -15 -36 9 -68 14 -70 12 -4 -4 49 -21
186 -58 36 -9 74 -21 85 -25 34 -12 4 12 -50 41 -60 32 -164 75 -179 75 -6 -1
16 -14 49 -30z"/>
<path d="M2185 2636 c72 -34 172 -88 224 -120 51 -31 95 -55 98 -53 12 13
-409 238 -442 237 -5 -1 49 -29 120 -64z"/>
<path d="M2091 2595 c54 -29 128 -54 134 -44 4 5 3 9 -2 8 -4 -1 -28 7 -53 18
-25 11 -58 23 -75 26 l-30 7 26 -15z"/>
<path d="M3317 2483 c-4 -3 -7 -20 -7 -38 0 -54 41 -75 61 -31 17 36 4 76 -25
76 -12 0 -26 -3 -29 -7z"/>
<path d="M1798 2433 c7 -3 16 -2 19 1 4 3 -2 6 -13 5 -11 0 -14 -3 -6 -6z"/>
<path d="M2206 2411 c-3 -5 1 -11 9 -14 9 -4 12 -1 8 9 -6 16 -10 17 -17 5z"/>
<path d="M1880 2376 c0 -2 7 -7 16 -10 8 -3 12 -2 9 4 -6 10 -25 14 -25 6z"/>
<path d="M2464 2358 c-4 -6 3 -20 17 -31 22 -17 24 -18 27 -3 8 38 -26 64 -44
34z"/>
<path d="M2123 2283 c9 -11 17 -24 17 -30 0 -6 30 -23 68 -39 69 -29 186 -96
256 -146 22 -16 40 -27 42 -26 1 2 0 16 -3 31 -7 38 -60 75 -180 127 -54 23
-125 56 -158 72 -47 25 -56 27 -42 11z"/>
<path d="M2265 2256 c37 -25 158 -76 145 -61 -11 14 -10 14 14 6 14 -6 40 -18
56 -26 17 -9 30 -13 30 -10 0 9 -86 48 -169 76 -97 33 -103 34 -76 15z"/>
<path d="M2450 2166 c0 -3 9 -10 20 -16 11 -6 20 -8 20 -6 0 3 -9 10 -20 16
-11 6 -20 8 -20 6z"/>
<path d="M3310 1925 c-15 -18 -6 -45 15 -45 9 0 15 9 15 24 0 31 -14 40 -30
21z"/>
<path d="M3387 1922 c-22 -24 -21 -32 3 -32 15 0 20 7 20 25 0 30 -2 30 -23 7z"/>
<path d="M3390 1741 c0 -40 13 -61 25 -41 9 15 -4 80 -15 80 -6 0 -10 -18 -10
-39z"/>
<path d="M3342 1747 c-9 -11 -10 -17 -2 -22 15 -9 23 -1 18 21 -3 15 -4 16
-16 1z"/>
<path d="M3370 1648 c0 -6 8 -20 17 -30 18 -20 31 -126 17 -137 -5 -3 -7 -57
-4 -120 4 -102 7 -112 20 -97 16 20 16 24 6 239 -8 157 -8 157 -32 157 -13 0
-24 -5 -24 -12z"/>
<path d="M3295 1587 c-8 -20 -15 -55 -15 -77 0 -36 3 -40 24 -40 36 0 55 10
49 26 -3 8 -16 14 -29 14 -28 0 -31 21 -9 64 11 20 12 33 6 39 -7 7 -16 -1
-26 -26z"/>
<path d="M2531 1263 c-1 -17 4 -35 9 -38 12 -7 12 22 0 50 -7 17 -9 15 -9 -12z"/>
</g>
</svg>
