<?xml version="1.0" encoding="UTF-8" standalone="no"?>
<!-- Created with Inkscape (http://www.inkscape.org/) -->

<svg
   width="131.03522mm"
   height="133.24164mm"
   viewBox="0 0 131.03522 133.24164"
   version="1.1"
   id="svg1"
   xml:space="preserve"
   xmlns:xlink="http://www.w3.org/1999/xlink"
   xmlns="http://www.w3.org/2000/svg"
   xmlns:svg="http://www.w3.org/2000/svg"><defs
     id="defs1"><linearGradient
       id="linearGradient5"><stop
         style="stop-color:#ffc601;stop-opacity:1;"
         offset="0"
         id="stop5" /><stop
         style="stop-color:#ff0000;stop-opacity:1;"
         offset="1"
         id="stop6" /></linearGradient><rect
       x="169.48936"
       y="222.28113"
       width="519.58215"
       height="325.08615"
       id="rect5" /><rect
       x="131.97942"
       y="284.7977"
       width="493.18625"
       height="165.32159"
       id="rect3" /><linearGradient
       id="a"
       x1="64.699997"
       x2="77.400002"
       y1="119.2"
       y2="77.400002"
       gradientUnits="userSpaceOnUse"><stop
         stop-color="#D83333"
         id="stop3-7" /><stop
         offset="1"
         stop-color="#F041FF"
         id="stop4" /></linearGradient><linearGradient
       xlink:href="#linearGradient5"
       id="linearGradient6"
       x1="178.89822"
       y1="328.43329"
       x2="269.71423"
       y2="328.43329"
       gradientUnits="userSpaceOnUse" /></defs><g
     id="layer1"
     transform="translate(-40.414079,-145.71839)"><g
       style="fill:none"
       id="g3"
       transform="matrix(0.6912295,0.6912295,-0.6912295,0.6912295,103.54132,135.55586)"><path
         d="m -70.352666,8.7227785 c -5.5,-5 -7.2,-15.7 -4.9,-23.3999995 4,4.8999995 9.6,6.3999995 15.4,7.2999995 8.9,1.3 17.6,0.8 25.9,-3.1999995 l 2.8,-1.7 a 18,18 0 0 1 -7.2,19.9999995 l -5.5,3.8000005 c -5.6,3.8 -7.2,8.2 -5,14.7 l 0.2,0.7 a 14,14 0 0 1 -6.6,-5.6 15.8,15.8 0 0 1 -2.6,-8.6 c 0,-1.5 0,-3.0000005 -0.2,-4.5000005 -0.5,-3.7 -2.2,-5.3 -5.5,-5.4 -3.3,-0.1 -5.9,2 -6.6,5.2 z"
         id="path1-3"
         style="fill:#000000" /><path
         d="m -102.05267,-15.977221 c 0,0 16.500004,-8 33.000004,-8 l 12.4,-38.3 c 0.5,-2 1.8,-3.2 3.3,-3.2 1.6,0 3,1.3 3.4,3.2 l 12.4,38.3 c 19.6,0 33.0000002,8 33.0000002,8 l -28.0000002,-76 c -0.8,-2.3 -2.2,-3.7 -4,-3.7 h -33.5 c -1.8,0 -3.1,1.4 -4,3.7 z"
         id="path2-6"
         style="fill:#000000" /><text
         xml:space="preserve"
         transform="matrix(0.19138603,-0.19138603,0.19138603,0.19138603,-172.95065,-23.157678)"
         id="text3"
         style="font-size:12px;font-family:Z003;-inkscape-font-specification:'Z003, Normal';white-space:pre;shape-inside:url(#rect3);fill:#eeff21;fill-opacity:1" /><text
         xml:space="preserve"
         style="font-size:3.24793px;font-family:Z003;-inkscape-font-specification:'Z003, Normal';fill:#eeff21;fill-opacity:1;stroke-width:0.270661"
         x="25.310415"
         y="-32.256634"
         id="text4"
         transform="rotate(-45)"><tspan
           id="tspan4"
           style="stroke-width:0.270661"
           x="25.310415"
           y="-32.256634" /></text><g
         id="g6"
         transform="translate(-9.5718378,22.334288)"><path
           fill="url(#a)"
           d="m 47.7,107.1 c -5.5,-5 -7.2,-15.7 -4.9,-23.4 4,4.9 9.6,6.4 15.4,7.3 8.9,1.3 17.6,0.8 25.9,-3.2 l 2.8,-1.7 a 18,18 0 0 1 -7.2,20 l -5.5,3.8 c -5.6,3.8 -7.2,8.2 -5,14.7 l 0.2,0.7 a 14,14 0 0 1 -6.6,-5.6 15.8,15.8 0 0 1 -2.6,-8.6 c 0,-1.5 0,-3 -0.2,-4.5 -0.5,-3.7 -2.2,-5.3 -5.5,-5.4 -3.3,-0.1 -5.9,2 -6.6,5.2 z"
           id="path3"
           style="fill:url(#a)" /><text
           xml:space="preserve"
           transform="matrix(0.79383836,0,0,0.79383836,-112.01884,-232.84368)"
           id="text5"
           style="font-size:12px;font-family:Z003;-inkscape-font-specification:'Z003, Normal';white-space:pre;shape-inside:url(#rect5);fill:url(#linearGradient6);fill-opacity:1;fill-rule:nonzero"><tspan
             x="169.49023"
             y="396.97729"
             id="tspan5"><tspan
               style="font-size:192px;font-family:Sans;-inkscape-font-specification:'Sans, Normal'"
               id="tspan3">8</tspan></tspan></text></g></g></g><style
     id="style3">&#10;    @media (prefers-color-scheme:dark){:root{filter:invert(100%)}}&#10;  </style><style
     id="style4">&#10;    g {&#10;      fill: #000;&#10;    }&#10;&#10;    @media (prefers-color-scheme: dark) {&#10;      g {&#10;        fill: #FFF;&#10;      }&#10;    }&#10;  </style></svg>
